<?xml version="1.0" encoding="UTF-8"?>
<svg xmlns="http://www.w3.org/2000/svg" xmlns:xlink="http://www.w3.org/1999/xlink" width="306" height="140">
	<title id="title8">Persona 5 Joker Mask. You should ask Atlus the licensor of this design for permission for profitable usage.</title><!--
	<image xlink:href="joker_mask.bmp" x="-2" y="-3" width="328" height="145"/>-->
	<g id="left" style="stroke:#000;stroke-width:1;fill-rule:nonzero;opacity:1">
		<path style="fill:#fff" d="
		M 0,0
		c 30,5 90,15 153,40
		v 100
		c -25,-35 -40,-40 -65,-30
		c -48,-25 -69,-60 -88,-110
		z
		
		M 65,48
		c 6,31 20,27 52,24
		c -15,-20 -30,-19 -52,-24
		z
		"/>
		<path style="fill:none" d="
		M 0,0
		c 20,7 75,15 153,50
		"/>
		<path style="fill:#000" d="
		M 35,28
		c 80,10 90,35 97,56
		c -70,23 -75,-20 -97,-56
		z
		
		M 65,48
		c 6,31 20,27 52,24
		c -15,-20 -30,-19 -52,-24
		z
		"/>
		<path style="fill:#000" d="
		M 80,37
		c 2,-2 3,-3 4,-8
		c 0,5 1,9 4,11
		
		M 112,89
		c -1,1 -2,2 -1,8
		c -1,-6 -2,-6 -4,-8
		
		M 92,90
		c -3,2 -4,5 -6,16
		c -1,-11 -2,-14 -5,-19
		
		M 66,79
		c -2,-2 -4,0 -10,5
		c 2,-4 4,-6 5,-11
		
		M 54,62
		c -3,-1 -5,-2 -11,-1
		c 4,-2 8,-4 6,-6
		"/>
	</g>
	<use xlink:href="#left" transform="translate(306)scale(-1,1)"/>
</svg>